<?xml version="1.0" encoding="UTF-8"?>
<svg version="1.1" xmlns="http://www.w3.org/2000/svg" width="300" height="300">
<path d="M0 0 C4.95 0 9.9 0 15 0 C15 4.95 15 9.9 15 15 C15.969375 14.484375 16.93875 13.96875 17.9375 13.4375 C22.42493426 11.53897012 26.35282073 11.59994236 31 13 C34.50805035 15.03598747 36.68921709 17.06765126 38 21 C38.08358958 23.21089945 38.10731764 25.42426078 38.09765625 27.63671875 C38.09443359 28.93544922 38.09121094 30.23417969 38.08789062 31.57226562 C38.07953531 32.94401108 38.07107037 34.31575587 38.0625 35.6875 C38.05748335 37.07096195 38.05292073 38.45442563 38.04882812 39.83789062 C38.03702529 43.22530395 38.02056019 46.61263033 38 50 C35.68756208 50.02685412 33.3750373 50.04632841 31.0625 50.0625 C29.77472656 50.07410156 28.48695313 50.08570313 27.16015625 50.09765625 C24 50 24 50 23 49 C22.91262355 47.14630389 22.89301847 45.28932459 22.90234375 43.43359375 C22.90556641 42.30888672 22.90878906 41.18417969 22.91210938 40.02539062 C22.92048828 38.84138672 22.92886719 37.65738281 22.9375 36.4375 C22.94201172 35.24962891 22.94652344 34.06175781 22.95117188 32.83789062 C22.96300325 29.89187774 22.97948713 26.94596319 23 24 C20.69 24.33 18.38 24.66 16 25 C15.67 33.25 15.34 41.5 15 50 C10.05 50 5.1 50 0 50 C0 33.5 0 17 0 0 Z " fill="#00BE62" transform="translate(186,123)"/>
<path d="M0 0 C6.85476371 5.81164749 7.06536359 9.65363586 8 19 C-0.91 19 -9.82 19 -19 19 C-17.95128747 20.27305556 -17.95128747 20.27305556 -15.59155273 20.11352539 C-14.54942627 20.10828857 -13.5072998 20.10305176 -12.43359375 20.09765625 C-11.30888672 20.09443359 -10.18417969 20.09121094 -9.02539062 20.08789062 C-7.84138672 20.07951172 -6.65738281 20.07113281 -5.4375 20.0625 C-4.24962891 20.05798828 -3.06175781 20.05347656 -1.83789062 20.04882812 C1.10812226 20.03699675 4.05403681 20.02051287 7 20 C8 22 8 22 7.65234375 23.8046875 C5.85499148 29.01013397 4.05863046 31.36529664 -1 34 C-7.80006697 36.26668899 -18.23081576 36.38035141 -24.75 33.3125 C-29.91036043 29.64070508 -32.42257887 26.49917294 -33.74609375 20.1796875 C-34.37157644 14.81015918 -33.77866587 10.47390326 -31.25 5.6875 C-23.29488914 -3.81443797 -10.94266325 -6.14153928 0 0 Z M-16 7 C-17.485 9.475 -17.485 9.475 -19 12 C-15.04 12 -11.08 12 -7 12 C-7.33 10.68 -7.66 9.36 -8 8 C-10.86120256 6.56939872 -12.84010585 6.61307419 -16 7 Z M-17 21 C-17 22.32 -17 23.64 -17 25 C-14.14221967 25.68493373 -14.14221967 25.68493373 -11 26 C-10.01 25.34 -9.02 24.68 -8 24 C-8.33 23.01 -8.66 22.02 -9 21 C-11.64 21 -14.28 21 -17 21 Z M-8 21 C-7 24 -7 24 -7 24 Z " fill="#00BE62" transform="translate(130,138)"/>
<path d="M0 0 C6.53279339 -0.02464347 13.06555998 -0.04283291 19.59838867 -0.05493164 C21.82267732 -0.05997317 24.04696263 -0.06680623 26.27124023 -0.07543945 C29.46078309 -0.08751298 32.65028229 -0.09322996 35.83984375 -0.09765625 C37.34139259 -0.10539818 37.34139259 -0.10539818 38.87327576 -0.11329651 C39.79415482 -0.11337204 40.71503387 -0.11344757 41.66381836 -0.11352539 C42.47878281 -0.115746 43.29374725 -0.11796661 44.13340759 -0.12025452 C46 0 46 0 47 1 C47.09851171 2.83115883 47.12972629 4.66619933 47.125 6.5 C47.12886719 8.00046875 47.12886719 8.00046875 47.1328125 9.53125 C47 12 47 12 46 13 C41.05 13 36.1 13 31 13 C31 24.55 31 36.1 31 48 C25.72 48 20.44 48 15 48 C15 36.45 15 24.9 15 13 C10.05 13 5.1 13 0 13 C0 8.71 0 4.42 0 0 Z " fill="#00BE62" transform="translate(51,125)"/>
<path d="M0 0 C3.58635626 2.89960719 5.84434163 5.49293238 7 10 C6.67 11.32 6.34 12.64 6 14 C1.71 14 -2.58 14 -7 14 C-7.66 12.35 -8.32 10.7 -9 9 C-13.00254456 8.90818866 -13.00254456 8.90818866 -17 9 C-18.33901792 10.11126659 -18.33901792 10.11126659 -18.09765625 12.94140625 C-18.08605469 14.13636719 -18.07445312 15.33132812 -18.0625 16.5625 C-18.05347656 17.76003906 -18.04445312 18.95757812 -18.03515625 20.19140625 C-18.02355469 21.11824219 -18.01195312 22.04507813 -18 23 C-15.71294169 24.14352916 -14.40735238 24.10334439 -11.875 24.0625 C-9.956875 24.0315625 -9.956875 24.0315625 -8 24 C-7.67 22.35 -7.34 20.7 -7 19 C-2.38 19 2.24 19 7 19 C5.66071429 27.97321429 5.66071429 27.97321429 2.1875 30.9375 C-3.16095367 34.39826414 -7.03935421 35.29317025 -13.4375 35.3125 C-14.71496094 35.32925781 -15.99242187 35.34601563 -17.30859375 35.36328125 C-22.86925191 34.81604188 -26.75461723 32.86840125 -30.3125 28.5625 C-30.80363281 27.98628906 -31.29476562 27.41007812 -31.80078125 26.81640625 C-34.8551953 22.19001363 -34.55332055 16.33272707 -34 11 C-32.37206506 5.01707987 -29.28740758 1.95661179 -24 -1.08984375 C-16.26757763 -4.60870003 -7.50881853 -3.65963777 0 0 Z " fill="#00BE62" transform="translate(175,138)"/>
<path d="M0 0 C4.95 0 9.9 0 15 0 C15 4.95 15 9.9 15 15 C10.05 15 5.1 15 0 15 C0 10.05 0 5.1 0 0 Z " fill="#37B5FE" transform="translate(231,158)"/>
<path d="M0 0 C0.33 0 0.66 0 1 0 C1 16.17 1 32.34 1 49 C0.67 49 0.34 49 0 49 C0 32.83 0 16.66 0 0 Z " fill="#00BE62" transform="translate(184,123)"/>
<path d="M0 0 C14.85 0 29.7 0 45 0 C45 0.33 45 0.66 45 1 C30.15 1 15.3 1 0 1 C0 0.67 0 0.34 0 0 Z " fill="#00BF62" transform="translate(52,123)"/>
<path d="M0 0 C0.33 0 0.66 0 1 0 C1 10.89 1 21.78 1 33 C0.67 33 0.34 33 0 33 C0 22.11 0 11.22 0 0 Z " fill="#00BE62" transform="translate(64,139)"/>
<path d="M0 0 C0.33 0 0.66 0 1 0 C1 8.91 1 17.82 1 27 C0.67 27 0.34 27 0 27 C0 18.09 0 9.18 0 0 Z " fill="#00BE62" transform="translate(225,145)"/>
<path d="M0 0 C0.99 0.495 0.99 0.495 2 1 C1.67 8.59 1.34 16.18 1 24 C0.67 24 0.34 24 0 24 C0 16.08 0 8.16 0 0 Z " fill="#00BF63" transform="translate(202,148)"/>
<path d="M0 0 C4.95 0 9.9 0 15 0 C15 0.33 15 0.66 15 1 C10.05 1 5.1 1 0 1 C0 0.67 0 0.34 0 0 Z " fill="#37B5FE" transform="translate(231,156)"/>
<path d="M0 0 C0.33 0 0.66 0 1 0 C1 3.63 1 7.26 1 11 C1.66 11.33 2.32 11.66 3 12 C2.01 12.33 1.02 12.66 0 13 C0 8.71 0 4.42 0 0 Z " fill="#00BE62" transform="translate(202,124)"/>
<path d="M0 0 C0.33 0 0.66 0 1 0 C1 4.62 1 9.24 1 14 C0.67 14 0.34 14 0 14 C0 9.38 0 4.76 0 0 Z " fill="#37B5FE" transform="translate(229,158)"/>
<path d="M0 0 C2 2 2 2 2.1953125 4.3828125 C2.17210937 5.28773438 2.14890625 6.19265625 2.125 7.125 C2.10695312 8.03507813 2.08890625 8.94515625 2.0703125 9.8828125 C2.03550781 10.93082031 2.03550781 10.93082031 2 12 C1.67 12 1.34 12 1 12 C0.67 8.04 0.34 4.08 0 0 Z " fill="#00BE62" transform="translate(138,148)"/>
<path d="M0 0 C4.62 0 9.24 0 14 0 C14 0.33 14 0.66 14 1 C9.38 1 4.76 1 0 1 C0 0.67 0 0.34 0 0 Z " fill="#00BE62" transform="translate(186,121)"/>
<path d="M0 0 C4.29 0 8.58 0 13 0 C13 0.33 13 0.66 13 1 C8.71 1 4.42 1 0 1 C0 0.67 0 0.34 0 0 Z " fill="#00BE62" transform="translate(168,155)"/>
<path d="M0 0 C0.33 0 0.66 0 1 0 C1 3.96 1 7.92 1 12 C0.67 12 0.34 12 0 12 C0 8.04 0 4.08 0 0 Z " fill="#00BE62" transform="translate(49,126)"/>
<path d="M0 0 C2.31 0 4.62 0 7 0 C7 0.33 7 0.66 7 1 C4.69 1 2.38 1 0 1 C0 0.67 0 0.34 0 0 Z " fill="#00BE62" transform="translate(162,174)"/>
<path d="M0 0 C2.31 0 4.62 0 7 0 C7 0.33 7 0.66 7 1 C4.69 1 2.38 1 0 1 C0 0.67 0 0.34 0 0 Z " fill="#00BE62" transform="translate(119,174)"/>
<path d="M0 0 C1.98 0 3.96 0 6 0 C6 0.33 6 0.66 6 1 C4.02 1 2.04 1 0 1 C0 0.67 0 0.34 0 0 Z " fill="#00BE62" transform="translate(155,174)"/>
<path d="M0 0 C1.98 0 3.96 0 6 0 C6 0.33 6 0.66 6 1 C4.02 1 2.04 1 0 1 C0 0.67 0 0.34 0 0 Z " fill="#00BE63" transform="translate(111,174)"/>
<path d="M0 0 C1.98 0 3.96 0 6 0 C6 0.33 6 0.66 6 1 C4.02 1 2.04 1 0 1 C0 0.67 0 0.34 0 0 Z " fill="#00BE62" transform="translate(159,161)"/>
<path d="M0 0 C0.66 1.32 1.32 2.64 2 4 C1.01 4.495 1.01 4.495 0 5 C0 3.35 0 1.7 0 0 Z " fill="#00BE62" transform="translate(157,156)"/>
<path d="M0 0 C1.65 0 3.3 0 5 0 C5 0.33 5 0.66 5 1 C3.35 1 1.7 1 0 1 C0 0.67 0 0.34 0 0 Z " fill="#00BE62" transform="translate(115,146)"/>
<path d="M0 0 C1.65 0 3.3 0 5 0 C5 0.33 5 0.66 5 1 C3.35 1 1.7 1 0 1 C0 0.67 0 0.34 0 0 Z " fill="#00BE62" transform="translate(159,133)"/>
<path d="M0 0 C1 4 1 4 1 4 Z " fill="#00BE62" transform="translate(157,148)"/>
<path d="M0 0 C1 4 1 4 1 4 Z " fill="#00BE62" transform="translate(95,147)"/>
<path d="M0 0 C4 1 4 1 4 1 Z " fill="#00BE62" transform="translate(122,134)"/>
<path d="M0 0 C4 1 4 1 4 1 Z " fill="#00BF62" transform="translate(115,133)"/>
<path d="" fill="#00BE63" transform="translate(0,0)"/>
<path d="M0 0 C0.66 0.66 1.32 1.32 2 2 C1.34 2 0.68 2 0 2 C0 1.34 0 0.68 0 0 Z " fill="#00BE61" transform="translate(113,160)"/>
<path d="" fill="#00BE62" transform="translate(0,0)"/>
<path d="" fill="#00BE62" transform="translate(0,0)"/>
<path d="" fill="#00BD62" transform="translate(0,0)"/>
<path d="M0 0 C3 1 3 1 3 1 Z " fill="#00BE62" transform="translate(205,134)"/>
<path d="M0 0 C3 1 3 1 3 1 Z " fill="#00BE62" transform="translate(167,134)"/>
<path d="M0 0 C3 1 3 1 3 1 Z " fill="#00BE62" transform="translate(153,134)"/>
<path d="M0 0 C3 1 3 1 3 1 Z " fill="#00BE62" transform="translate(109,134)"/>
<path d="M0 0 C3 1 3 1 3 1 Z " fill="#00BF62" transform="translate(210,133)"/>
<path d="M0 0 C2 1 2 1 2 1 Z " fill="#00BE62" transform="translate(170,173)"/>
<path d="M0 0 C2 1 2 1 2 1 Z " fill="#00BD62" transform="translate(152,173)"/>
<path d="M0 0 C2 1 2 1 2 1 Z " fill="#00BE61" transform="translate(127,173)"/>
<path d="M0 0 C2 1 2 1 2 1 Z " fill="#00BE62" transform="translate(107,173)"/>
<path d="M0 0 C2 1 2 1 2 1 Z " fill="#00BE63" transform="translate(172,172)"/>
<path d="M0 0 C2 1 2 1 2 1 Z " fill="#00BC62" transform="translate(129,172)"/>
<path d="M0 0 C2 1 2 1 2 1 Z " fill="#00BE62" transform="translate(174,171)"/>
<path d="M0 0 C2 1 2 1 2 1 Z " fill="#00BE62" transform="translate(103,171)"/>
<path d="" fill="#00BF62" transform="translate(0,0)"/>
<path d="" fill="#00BF61" transform="translate(0,0)"/>
<path d="" fill="#00BD63" transform="translate(0,0)"/>
<path d="" fill="#00BE62" transform="translate(0,0)"/>
<path d="" fill="#00BD62" transform="translate(0,0)"/>
<path d="" fill="#00BF62" transform="translate(0,0)"/>
<path d="" fill="#00BD62" transform="translate(0,0)"/>
<path d="" fill="#00BF62" transform="translate(0,0)"/>
<path d="M0 0 C2 1 2 1 2 1 Z " fill="#00BE62" transform="translate(163,147)"/>
<path d="M0 0 C2 1 2 1 2 1 Z " fill="#00BF62" transform="translate(158,147)"/>
<path d="" fill="#00BE62" transform="translate(0,0)"/>
<path d="" fill="#00BE62" transform="translate(0,0)"/>
<path d="" fill="#00C064" transform="translate(0,0)"/>
<path d="" fill="#00BE63" transform="translate(0,0)"/>
<path d="" fill="#00BF61" transform="translate(0,0)"/>
<path d="" fill="#00BD62" transform="translate(0,0)"/>
<path d="" fill="#00C062" transform="translate(0,0)"/>
<path d="" fill="#00BE63" transform="translate(0,0)"/>
<path d="" fill="#00BE62" transform="translate(0,0)"/>
<path d="" fill="#00BD62" transform="translate(0,0)"/>
<path d="" fill="#00BE63" transform="translate(0,0)"/>
<path d="M0 0 C2 1 2 1 2 1 Z " fill="#00BD61" transform="translate(147,137)"/>
<path d="M0 0 C2 1 2 1 2 1 Z " fill="#00BF62" transform="translate(173,136)"/>
<path d="M0 0 C2 1 2 1 2 1 Z " fill="#00BE64" transform="translate(128,136)"/>
<path d="M0 0 C2 1 2 1 2 1 Z " fill="#00BF62" transform="translate(104,136)"/>
<path d="M0 0 C2 1 2 1 2 1 Z " fill="#00BE62" transform="translate(171,135)"/>
<path d="M0 0 C2 1 2 1 2 1 Z " fill="#00BE62" transform="translate(151,135)"/>
<path d="M0 0 C2 1 2 1 2 1 Z " fill="#00BE62" transform="translate(126,135)"/>
<path d="M0 0 C2 1 2 1 2 1 Z " fill="#00BE62" transform="translate(106,135)"/>
<path d="M0 0 C2 1 2 1 2 1 Z " fill="#00BE62" transform="translate(215,134)"/>
<path d="" fill="#00BE63" transform="translate(0,0)"/>
<path d="" fill="#00BF62" transform="translate(0,0)"/>
<path d="" fill="#00BE62" transform="translate(0,0)"/>
<path d="" fill="#00BF62" transform="translate(0,0)"/>
<path d="" fill="#00BE62" transform="translate(0,0)"/>
<path d="" fill="#00BE63" transform="translate(0,0)"/>
<path d="" fill="#00BF63" transform="translate(0,0)"/>
<path d="" fill="#00BE62" transform="translate(0,0)"/>
<path d="" fill="#00BE63" transform="translate(0,0)"/>
<path d="" fill="#00BE62" transform="translate(0,0)"/>
<path d="" fill="#00BF61" transform="translate(0,0)"/>
<path d="" fill="#00BE62" transform="translate(0,0)"/>
<path d="" fill="#00BE62" transform="translate(0,0)"/>
<path d="" fill="#00BE62" transform="translate(0,0)"/>
<path d="" fill="#00BF61" transform="translate(0,0)"/>
<path d="" fill="#00BE61" transform="translate(0,0)"/>
<path d="" fill="#00BE62" transform="translate(0,0)"/>
<path d="" fill="#00BE61" transform="translate(0,0)"/>
<path d="" fill="#00BE62" transform="translate(0,0)"/>
<path d="" fill="#00BF61" transform="translate(0,0)"/>
<path d="" fill="#00BD63" transform="translate(0,0)"/>
<path d="" fill="#00BD62" transform="translate(0,0)"/>
<path d="" fill="#00BD62" transform="translate(0,0)"/>
<path d="" fill="#00BE62" transform="translate(0,0)"/>
<path d="" fill="#00BE62" transform="translate(0,0)"/>
<path d="" fill="#37B5FF" transform="translate(0,0)"/>
<path d="" fill="#00BD62" transform="translate(0,0)"/>
<path d="" fill="#00BE62" transform="translate(0,0)"/>
<path d="" fill="#00C164" transform="translate(0,0)"/>
<path d="" fill="#00BD63" transform="translate(0,0)"/>
<path d="" fill="#00BE62" transform="translate(0,0)"/>
<path d="" fill="#00BF62" transform="translate(0,0)"/>
<path d="" fill="#00BE62" transform="translate(0,0)"/>
<path d="" fill="#00BE62" transform="translate(0,0)"/>
<path d="" fill="#00BE62" transform="translate(0,0)"/>
<path d="" fill="#00BE62" transform="translate(0,0)"/>
<path d="" fill="#00BE62" transform="translate(0,0)"/>
<path d="" fill="#00BE63" transform="translate(0,0)"/>
<path d="" fill="#00BE62" transform="translate(0,0)"/>
<path d="" fill="#00BE61" transform="translate(0,0)"/>
<path d="" fill="#00BE62" transform="translate(0,0)"/>
<path d="" fill="#00BE62" transform="translate(0,0)"/>
<path d="" fill="#00BF62" transform="translate(0,0)"/>
<path d="" fill="#00BD62" transform="translate(0,0)"/>
<path d="" fill="#00BE62" transform="translate(0,0)"/>
<path d="" fill="#00BE61" transform="translate(0,0)"/>
<path d="" fill="#00BF62" transform="translate(0,0)"/>
<path d="" fill="#00BC61" transform="translate(0,0)"/>
<path d="" fill="#00BF62" transform="translate(0,0)"/>
<path d="" fill="#00BE63" transform="translate(0,0)"/>
<path d="" fill="#00BE63" transform="translate(0,0)"/>
<path d="" fill="#00BE62" transform="translate(0,0)"/>
<path d="" fill="#00BE63" transform="translate(0,0)"/>
<path d="" fill="#00BF62" transform="translate(0,0)"/>
<path d="" fill="#00BE63" transform="translate(0,0)"/>
<path d="" fill="#00BE62" transform="translate(0,0)"/>
</svg>
